<?xml version="1.0" encoding="utf-8"?>
<!-- Generator: Adobe Illustrator 19.0.0, SVG Export Plug-In . SVG Version: 6.00 Build 0)  -->
<svg version="1.1" id="Слой_1" xmlns="http://www.w3.org/2000/svg" xmlns:xlink="http://www.w3.org/1999/xlink" x="0px" y="0px"
	 viewBox="-978.9 978.3 21.8 23.9" style="enable-background:new -978.9 978.3 21.8 23.9;" xml:space="preserve">
<path d="M-969.3,987.6h2.5c0.2,0,0.4-0.2,0.4-0.4V986h1.2c0.2,0,0.4-0.2,0.4-0.4v-2.5c0-0.2-0.2-0.4-0.4-0.4h-1.2v-1.2
	c0-0.2-0.2-0.4-0.4-0.4h-2.5c-0.2,0-0.4,0.2-0.4,0.4v1.2h-1.2c-0.2,0-0.4,0.2-0.4,0.4v2.5c0,0.2,0.2,0.4,0.4,0.4h1.2v1.2
	C-969.7,987.4-969.5,987.6-969.3,987.6z M-970.4,985.2v-1.7h1.2c0.2,0,0.4-0.2,0.4-0.4v-1.2h1.7v1.2c0,0.2,0.2,0.4,0.4,0.4h1.2v1.7
	h-1.2c-0.2,0-0.4,0.2-0.4,0.4v1.2h-1.7v-1.2c0-0.2-0.2-0.4-0.4-0.4H-970.4z M-957.1,980.8c0-0.8-0.2-1.5-0.7-1.9
	c-0.4-0.3-0.9-0.5-1.5-0.6c-1.2,0-2.1,1-2.1,2.5c0,1,0,2,0,3l0,1.8c-0.3,0.1-0.5,0.4-0.7,0.5c-0.5,0.5-0.9,1-1.3,1.6l-0.8,1.1
	c-0.7,1-1.5,2-2.2,3.1c-0.5,0.9-0.9,1.9-0.9,2.7c-0.1,1.6-0.1,3.2,0,4.8l0,0.3c0,0.5,0,1.1,0,1.6c0,0.5,0.4,0.9,0.9,0.9h4
	c0.5,0,0.9-0.4,0.9-0.9l0-1.6c0-1.1,0-2.3,0-3.4c0-0.7,0.2-1.2,0.6-1.7c0.3-0.4,0.8-0.8,1.3-1.3c0.7-0.6,1.5-1.3,1.9-2
	c0.4-0.5,0.6-1.3,0.6-1.9c0-2.3,0-4.6,0-6.9L-957.1,980.8z M-957.9,989.3c0,0.5-0.2,1.1-0.5,1.5c-0.4,0.6-1.1,1.2-1.8,1.8
	c-0.5,0.5-1.1,0.9-1.4,1.4c-0.5,0.7-0.8,1.4-0.7,2.2c0,1.1,0,2.3,0,3.4l0,1.6c0,0,0,0.1-0.1,0.1h-4c0,0-0.1,0-0.1-0.1
	c0-0.6,0-1.1,0-1.6l0-0.3c0-1.5,0-3.1,0-4.7c0-0.8,0.3-1.6,0.8-2.4c0.7-1.1,1.4-2.1,2.1-3.1l0.8-1.2c0.4-0.5,0.7-1,1.2-1.5
	c0.1-0.1,0.3-0.3,0.5-0.3c0,0,0,0,0,0c0.2,0.1,0.7,0.2,0.8,0.6c0.2,0.4-0.1,0.9-0.3,1.3c-0.2,0.4-0.5,0.8-0.7,1.1
	c-0.2,0.3-0.3,0.5-0.5,0.8l-0.1,0.2c-0.1,0.2-0.1,0.4,0.1,0.5c0.2,0.1,0.4,0.1,0.5-0.1l0.1-0.2c0.2-0.3,0.3-0.5,0.5-0.8
	c0.2-0.4,0.5-0.8,0.7-1.2c0.4-0.8,0.5-1.4,0.3-2c-0.2-0.6-0.8-0.9-1.2-1v-1.8c0-1,0-2,0-3c0-1,0.5-1.7,1.3-1.7c0.4,0,0.8,0.2,1,0.4
	c0.3,0.3,0.5,0.8,0.5,1.4l0,1.6C-957.9,984.7-957.9,987-957.9,989.3z M-969.6,991.9c-0.7-1.1-1.4-2.1-2.2-3.1l-0.8-1.1
	c-0.4-0.5-0.8-1.1-1.2-1.5c-0.1-0.2-0.4-0.4-0.7-0.5l0-1.8c0-1,0-2,0-3c0-1.5-0.9-2.5-2.2-2.5c-0.6,0-1.1,0.2-1.5,0.6
	c-0.5,0.4-0.7,1.1-0.7,1.9l0,1.8c0,2.2,0,4.5,0,6.7c0,0.7,0.2,1.4,0.6,1.9c0.5,0.7,1.2,1.4,1.9,2c0.5,0.5,1,0.9,1.3,1.3
	c0.4,0.5,0.6,1,0.6,1.7c0,1.1,0,2.3,0,3.4l0,1.6c0,0.5,0.4,0.9,0.9,0.9h4c0.5,0,0.9-0.4,0.9-0.9c0-0.6,0-1.1,0-1.6l0-0.3
	c0-1.5,0-3.2,0-4.8C-968.8,993.8-969.1,992.8-969.6,991.9z M-969.5,999.4l0,0.3c0,0.5,0,1.1,0,1.6c0,0,0,0.1-0.1,0.1h-4
	c0,0-0.1,0-0.1-0.1v0l0-1.6c0-1.1,0-2.3,0-3.4c0-0.9-0.2-1.6-0.7-2.2c-0.4-0.5-0.9-0.9-1.4-1.4c-0.7-0.6-1.4-1.2-1.8-1.8
	c-0.3-0.4-0.4-1-0.5-1.5c0-2.2,0-4.5,0-6.7l0-1.8c0-0.6,0.2-1.1,0.5-1.4c0.2-0.2,0.5-0.3,1-0.4c0.8,0,1.3,0.7,1.3,1.7c0,1,0,2,0,3
	v1.8c-0.4,0.1-0.9,0.4-1.2,1c-0.2,0.5-0.1,1.2,0.3,2c0.2,0.4,0.5,0.8,0.7,1.2c0.2,0.3,0.3,0.5,0.5,0.8l0.1,0.2
	c0.1,0.2,0.4,0.3,0.5,0.1c0.2-0.1,0.3-0.4,0.1-0.5l-0.1-0.2c-0.2-0.3-0.3-0.5-0.5-0.8c-0.2-0.4-0.5-0.8-0.7-1.1
	c-0.2-0.4-0.4-0.9-0.3-1.3c0.2-0.4,0.6-0.5,0.8-0.6c0,0,0,0,0,0c0.2,0,0.4,0.2,0.5,0.3c0.4,0.5,0.8,1,1.2,1.5l0.8,1.1
	c0.7,1,1.5,2,2.1,3c0.5,0.7,0.7,1.6,0.8,2.4C-969.5,996.3-969.5,997.8-969.5,999.4z"/>
</svg>
