
<svg version="1.1"
	 xmlns="http://www.w3.org/2000/svg"
	 xmlns:xlink="http://www.w3.org/1999/xlink"
	 xmlns:a="http://ns.adobe.com/AdobeSVGViewerExtensions/3.0/"
	 x="0px" y="0px" viewBox="0 0 75 47.2"
	 preserveAspectRatio="xMidYMin slice"
	 width="100%" style="padding-bottom: 60%; height: 1px; overflow: visible"
	 xml:space="preserve">
										<defs>
											<clipPath id="x_first">
												<path d="M43.7,7.3c-2.6,2.9-4.7,6.3-6.6,9.7c-0.9,1.8-5,9.2-5.6,10.3c-1.5,2.6-3.2,5.2-5.2,7.4c-1.5,1.7-3.4,3.2-5.5,4.1
											C19.1,39.6,17,40,15.2,40C10.1,40,5.1,40,0,40c0,2.4,0,4.8,0,7.2c5,0,10.1,0,15.1,0c1.4,0,2.8,0.1,4.2-0.2c1.8-0.2,3.7-0.8,5.3-1.6
											c1.5-0.8,2.9-1.8,4.2-2.8c0.6-0.6,1.2-1.2,1.8-1.8c3-3.1,5.2-6.8,7.3-10.7c0.6-1.1,5.1-9.3,5.3-9.8c2.1-3.6,4.4-7.2,7.7-10
											C52.7,9,54.7,8,57,7.6c0.5-0.1,1-0.2,1.5-0.2c2.1-0.1,4.2-0.1,6.3-0.1c3.4,0,6.8,0,10.2,0c0-2.4,0-4.8,0-7.2c-5.7,0-11.4,0-17.1,0
											c-2.3,0-4.6,0.5-6.7,1.4C48.3,2.8,45.8,4.8,43.7,7.3z"/>
											</clipPath>
											<clipPath id="x_second">
												<path d="M39.8,39.1c1.7,1.9,3.6,3.7,5.7,5c2.2,1.4,5,2.5,7.6,2.8c1.7,0.2,3.4,0.2,5,0.2c5.6,0,11.2,0,16.8,0c0-2.7,0-5.4,0-8.1
											c-5.6,0-11.3,0-17,0c-1.1,0-2.3-0.1-3.5-0.3c-2.8-0.7-5.4-2.1-7.5-4c-1-1-2-2-2.9-3.1C43.9,32,40.2,38.3,39.8,39.1z"/>
												<path d="M0,0c5.7,0,11.5,0,17.2,0c3-0.1,6.2,0.5,8.9,1.9c2.2,1,4.2,2.7,6,4.5c0.4,0.4,0.7,0.8,1.1,1.2c-0.5,0.9-3.2,5.6-4.1,7.1
											c-0.7-0.8-1.4-1.7-2.1-2.4c-1.3-1.2-2.7-2.3-4.2-3.1c-1.6-0.8-3.4-1.4-5.2-1.4c-1.5-0.1-2.9-0.1-4.3-0.1c-4.4,0-8.7,0-13.2,0
											C0,5.3,0,2.7,0,0z"/>
											</clipPath>
										</defs>
	<g clip-path="url(#x_first)">
											<rect class="logo_x_first" x="0" y="0" width="100%" height="100%" fill="#3b54ec" ></rect>
										</g>
	<g clip-path="url(#x_second)">
											<rect class="logo_x_second" x="0" y="0" width="100%" height="100%" fill="#3b54ec" ></rect>
										</g>
									</svg>