<?xml version="1.0" encoding="utf-8"?>
<!-- Generator: Adobe Illustrator 19.0.0, SVG Export Plug-In . SVG Version: 6.00 Build 0)  -->
<svg version="1.1" id="Слой_1" xmlns="http://www.w3.org/2000/svg" xmlns:xlink="http://www.w3.org/1999/xlink" x="0px" y="0px"
	 viewBox="-935.2 936 86.5 88.5" style="enable-background:new -935.2 936 86.5 88.5;" xml:space="preserve">
<path d="M-883.3,990.4c0.3,0.2,0.7,0.3,1,0.3c0.3,0,0.7-0.1,1-0.3c0.9-0.6,21.2-14.3,28.7-28c1.8-2.8,2.8-6,2.8-9.3
	c0-9.5-7.7-17.1-17.1-17.1c-7.1,0-12.5,6.2-14.8,8.9l-0.6,0.7l-0.6-0.7c-2.3-2.7-7.7-8.9-14.8-8.9c-9.5,0-17.1,7.7-17.1,17.1
	c0,3.3,0.9,6.5,2.7,9.3C-904.5,976.2-884.2,989.9-883.3,990.4z M-897.6,939.6c5.5,0,9.9,5.1,12.3,7.9c1.5,1.7,2.1,2.3,3.1,2.3
	c1,0,1.6-0.6,3.1-2.3c2.4-2.8,6.8-7.9,12.3-7.9c7.5,0,13.5,6.1,13.5,13.5c0,2.6-0.8,5.2-2.2,7.4c0,0,0,0.1-0.1,0.1
	c-5.9,11-21.5,22.5-26.2,25.8l-0.4,0.3l-0.4-0.3c-4.6-3.3-20.2-14.8-26.2-25.8l-0.1-0.1c-1.4-2.2-2.2-4.8-2.2-7.4c0-3.6,1.4-7,4-9.6
	S-901.2,939.6-897.6,939.6z M-851.9,991.1c-3.7-2.2-6.8,0.3-9.2,2.7c-3.1,3.2-6.9,6.4-8.8,8l-0.4,0.3l-0.4-0.2
	c-0.7-0.3-1.5-0.5-2.3-0.5c-3.9-0.2-14.7-1.1-17.6-2.8c-2.5-1.5-4.5-2.9-6.2-4.2c-5.1-3.7-8.7-6.3-18.3-6.3c-2.7,0-5.2,0.8-7.5,1.5
	c-2.5,0.8-4.9,1.6-7.8,1.6c-2.7,0-4.9,2.2-4.9,4.9v14.3c0,2.7,2.2,4.9,4.9,4.9c5,0,13.8,0.3,15.8,0.9c3.9,1.3,13,6.8,14,7.5
	c0.9,0.5,1.9,0.8,2.9,0.8h26c2.4,0,5.2-2.3,6.2-3.9c3.4-5.7,15.7-21.1,15.8-21.3l0,0c0.1-0.1,0.1-0.2,0.2-0.3
	C-848,996.1-849.1,992.8-851.9,991.1z M-871.6,1020.9h-26.1c-0.4,0-0.7-0.1-1-0.2l-0.1,0c-2.4-1.5-10.7-6.5-14.7-7.8
	c-2.5-0.8-10.7-1.1-16.9-1.1c-0.7,0-1.3-0.6-1.3-1.3v-14.3c0-0.7,0.6-1.3,1.3-1.3c3.5,0,6.4-0.9,8.9-1.7c2.3-0.7,4.3-1.3,6.4-1.3
	c8.4,0,11.5,2.2,16.1,5.6c1.8,1.3,3.8,2.8,6.5,4.3c1.1,0.7,3.1,1.3,5.8,1.8c5.2,1,11.6,1.4,13.5,1.5c1.3,0,2.4,1,2.4,2.3
	c0,1.3-1,2.3-2.3,2.3l-19.4,1c-1.7-0.1-4.7-2.1-8.1-4.5c-0.6-0.5-1.2-0.9-1.8-1.3c-1-0.7-2.4-1.6-3.6-2.2c-0.4-0.2-0.9-0.3-1.4-0.1
	c-0.5,0.2-0.8,0.5-1,0.9c-0.4,0.9-0.1,2,0.8,2.4c1.4,0.7,3.1,1.9,4.9,3.2c3.8,2.7,7.3,5.2,10.2,5.2l19.4-1c3.2,0,5.9-2.7,5.9-5.9
	c0-0.7-0.1-1.4-0.4-2.1l-0.2-0.5l0.4-0.3c1.9-1.6,5.7-4.8,8.9-8.1c1.9-1.9,3.3-3,4.7-2.1c1.1,0.6,1.6,1.8,1.2,2.8l0,0.1l-0.1,0.1
	c-2.1,2.6-12.6,15.9-15.9,21.4C-869,1019.6-870.7,1020.8-871.6,1020.9z"/>
</svg>
