<?xml version="1.0" encoding="utf-8"?>

<svg version="1.1" xmlns="http://www.w3.org/2000/svg" xmlns:xlink="http://www.w3.org/1999/xlink" x="0px" y="0px"
	 viewBox="0 0 75 15.5"
	 preserveAspectRatio="xMidYMin slice"
   width="100%" style="padding-bottom: 20%; height: 1px; overflow: visible" 
	 xml:space="preserve">
<path d="M30.2,0.1c2.1-0.4,4.3,0.2,5.8,1.7c2.4,2.3,2.9,5.9,1.9,9c-0.6,1.8-2,3.4-3.7,4.2c-2,0.9-4.4,0.7-6.2-0.5
	c-3.4-2.2-4.3-7.2-2.4-10.7C26.5,2,28.2,0.5,30.2,0.1z M30.4,2.3c-1.7,0.4-2.9,1.9-3.4,3.5c-0.4,1.6-0.3,3.4,0.4,5
	c0.6,1.2,1.7,2.1,3,2.4c1.5,0.4,3.3,0,4.4-1.2c1.1-1.1,1.6-2.7,1.5-4.3c0-1.6-0.5-3.2-1.6-4.4C33.6,2.3,31.9,1.9,30.4,2.3z M0,2.4
	c2.3,0,4.6,0,7,0c0.5,0,0.8,0.6,0.8,1c0,3.9,0,7.8,0,11.7c0.7,0,1.4,0,2,0c0-4,0-8,0-12c0-1.4-1-2.8-2.5-2.8c-2.4,0-4.8,0-7.3,0
	C0,1,0,1.7,0,2.4z M65.2,15.2c0.7,0,1.4,0,2.1,0c0-2.3,0-4.6,0-6.9c1.9,0,3.8,0,5.7,0c0,2.3,0,4.6,0,6.9c0.7,0,1.4,0,2,0
	c0-5,0-9.9,0-14.9c-0.7,0-1.4,0-2,0c0,1.9,0,3.9,0,5.8c-1.9,0-3.8,0-5.7,0c0-1.9,0-3.9,0-5.8c-0.7,0-1.4,0-2.1,0
	C65.2,5.3,65.2,10.2,65.2,15.2z M14.3,2.4c1,0,2.1,0,3.1,0c0.9,0,1.8,0.4,2.2,1.2c0.3,0.8,0.3,1.7-0.2,2.4C19,6.8,18.1,7,17.4,7
	c-1,0-2.1,0-3.1,0c0,2.7,0,5.4,0,8.2c0.7,0,1.4,0,2.1,0c0-2,0-4,0-6c1.2,0,2.6,0,3.6-0.8c2.5-1.7,2.4-6.1-0.3-7.6
	C18,0,16.1,0.4,14.3,0.3C14.3,1,14.3,1.7,14.3,2.4z M42.4,15.2c0.7,0,1.4,0,2,0c0-3.9,0-7.8,0-11.7c0-0.5,0.3-1.1,0.8-1
	c1.8,0,3.5,0,5.3,0c0-0.7,0-1.4,0-2.1c-1.9,0-3.8,0-5.7,0c-1.4,0-2.4,1.4-2.4,2.8C42.4,7.1,42.4,11.2,42.4,15.2z M53.9,2.4
	c2.4,0,4.9,0,7.3,0c0-0.7,0-1.4,0-2.1c-2.4,0-4.9,0-7.3,0C53.9,1,53.9,1.7,53.9,2.4z M53.9,12.6c0,1.3,1.1,2.6,2.5,2.6
	c1.6,0,3.2,0,4.8,0c0-0.7,0-1.4,0-2.1c-1.5,0-3,0-4.5,0c-0.5,0-0.8-0.4-0.8-0.9c0-1.4,0-2.7,0-4c1.3,0,2.7,0,4,0c0-0.7,0-1.4,0-2.1
	c-2,0-4,0-6,0C53.9,8.2,53.9,10.4,53.9,12.6z M0,15.2c0.7,0,1.4,0,2.1,0c0-2.7,0-5.4,0-8.2C1.4,7,0.7,7,0,7C0,9.7,0,12.5,0,15.2z"/>
</svg>
